<svg width="31" height="28" viewBox="0 0 31 28" fill="none" xmlns="http://www.w3.org/2000/svg">
<path d="M15.0511 0.678713L0.937956 12.4L0.5 12.7637H2.95699V26.6458C2.95699 26.9242 3.06757 27.1911 3.2644 27.388C3.46123 27.5848 3.72819 27.6954 4.00654 27.6954L11.3574 27.6764C11.6348 27.675 11.9004 27.5638 12.0961 27.3671C12.2918 27.1704 12.4017 26.9043 12.4017 26.6268V20.3485C12.4017 20.0701 12.5122 19.8032 12.7091 19.6064C12.9059 19.4095 13.1729 19.299 13.4512 19.299H17.6494C17.9278 19.299 18.1948 19.4095 18.3916 19.6064C18.5884 19.8032 18.699 20.0701 18.699 20.3485V26.6222C18.6986 26.7603 18.7254 26.8972 18.7779 27.0249C18.8305 27.1526 18.9077 27.2687 19.0052 27.3665C19.1027 27.4643 19.2186 27.5419 19.3461 27.5948C19.4737 27.6478 19.6104 27.675 19.7485 27.675L27.0967 27.6954C27.3751 27.6954 27.6421 27.5848 27.8389 27.388C28.0357 27.1911 28.1463 26.9242 28.1463 26.6458V12.7637H30.5L16.0548 0.678713C15.9126 0.564131 15.7355 0.501648 15.553 0.501648C15.3704 0.501648 15.1933 0.564131 15.0511 0.678713Z" fill="black"/>
</svg>
